<mxfile host="app.diagrams.net" modified="2021-11-18T14:06:52.111Z" agent="5.0 (Windows NT 10.0; Win64; x64) AppleWebKit/537.36 (KHTML, like Gecko) Chrome/95.0.4638.69 Safari/537.36 Edg/95.0.1020.53" etag="vr2SxGtopVz2aK3i_OZj" version="15.8.2" type="github">
  <diagram id="2XBx_An9-GMRjV5TEEYQ" name="第 1 页">
    <mxGraphModel dx="1038" dy="578" grid="0" gridSize="10" guides="1" tooltips="1" connect="1" arrows="1" fold="1" page="1" pageScale="1" pageWidth="827" pageHeight="1169" math="0" shadow="0">
      <root>
        <mxCell id="0" />
        <mxCell id="1" parent="0" />
        <mxCell id="EO6639EojoeNvwxyK_vV-4" style="edgeStyle=orthogonalEdgeStyle;rounded=0;orthogonalLoop=1;jettySize=auto;html=1;exitX=1;exitY=0.5;exitDx=0;exitDy=0;entryX=0;entryY=0.5;entryDx=0;entryDy=0;" edge="1" parent="1" source="EO6639EojoeNvwxyK_vV-1" target="EO6639EojoeNvwxyK_vV-2">
          <mxGeometry relative="1" as="geometry" />
        </mxCell>
        <mxCell id="EO6639EojoeNvwxyK_vV-1" value="Raw API" style="rounded=1;whiteSpace=wrap;html=1;" vertex="1" parent="1">
          <mxGeometry x="220" y="240" width="120" height="60" as="geometry" />
        </mxCell>
        <mxCell id="EO6639EojoeNvwxyK_vV-5" style="edgeStyle=orthogonalEdgeStyle;rounded=0;orthogonalLoop=1;jettySize=auto;html=1;exitX=1;exitY=0.5;exitDx=0;exitDy=0;entryX=0;entryY=0.5;entryDx=0;entryDy=0;" edge="1" parent="1" source="EO6639EojoeNvwxyK_vV-2" target="EO6639EojoeNvwxyK_vV-3">
          <mxGeometry relative="1" as="geometry" />
        </mxCell>
        <mxCell id="EO6639EojoeNvwxyK_vV-2" value="StandAloneStorage" style="rounded=1;whiteSpace=wrap;html=1;" vertex="1" parent="1">
          <mxGeometry x="380" y="240" width="120" height="60" as="geometry" />
        </mxCell>
        <mxCell id="EO6639EojoeNvwxyK_vV-3" value="BadgerDB" style="shape=datastore;whiteSpace=wrap;html=1;" vertex="1" parent="1">
          <mxGeometry x="540" y="240" width="60" height="60" as="geometry" />
        </mxCell>
        <mxCell id="EO6639EojoeNvwxyK_vV-7" value="" style="edgeStyle=orthogonalEdgeStyle;rounded=0;orthogonalLoop=1;jettySize=auto;html=1;" edge="1" parent="1" source="EO6639EojoeNvwxyK_vV-6" target="EO6639EojoeNvwxyK_vV-1">
          <mxGeometry relative="1" as="geometry" />
        </mxCell>
        <mxCell id="EO6639EojoeNvwxyK_vV-6" value="Client" style="text;html=1;align=center;verticalAlign=middle;resizable=0;points=[];autosize=1;strokeColor=none;fillColor=none;" vertex="1" parent="1">
          <mxGeometry x="140" y="260" width="50" height="20" as="geometry" />
        </mxCell>
      </root>
    </mxGraphModel>
  </diagram>
</mxfile>
